#!OML:ASF E:/inclinewalkrobotboard/Project1/Captureday1/Session1/subject1.ASF
:FULLY-SPECIFIED
:DEGREES
163
root 0 0 0 -7.31970509829118 -4.336071546664565 -3.1507226155776715
lowerback 13.285449061993841 1.3201630043358987 3.025366113885248
upperback 2.208690877703944 2.2500014875632006 1.3272919931465799
thorax -5.041486536337179 1.1417330678158835 -0.7354020942161128
lowerneck -17.43684315216755 -3.640522023508799 -1.9138033806261554
upperneck 18.839890987969145 -4.6504016534472346 0.7713913533739185
head 8.779620942729373 -2.270771677625021 -0.012961720321021941
rclavicle 3.5172497824827793E-15 7.2852273297590475E-16
rhumerus -47.76232019655237 -17.953907981742653 -73.1916403931486
rradius 25.588537649858296
rwrist -2.4230581534506612
rhand -22.408700355653316 28.604923689993115
rfingers 7.125020000000063
rthumb 4.017364174330673 -1.7177940850378874
lclavicle -3.766015297036258E-15 -6.198225522767106E-15
lhumerus -40.83911358109506 2.305428341092009 84.94855938450422
lradius 26.54938113009724
lwrist 3.166523131214525
lhand -32.65157089126006 21.04726896232796
lfingers 7.125020000000036
lthumb -5.795128252208883 51.91409028031466
rfemur -21.53548360458457 14.318879532973284 31.468497900913007
rtibia 33.65183612013625
rfoot -7.034091960709054 -12.655414566464755
rtoes -5.020383144014634
lfemur -5.333877375630209 -6.76234494648183 -20.597298353606398
ltibia 18.028590911612245
lfoot -10.405720971066494 0.23759989681962423
ltoes -5.314258239358816
164
root 0 0 0 -7.090246747238631 -3.925372591019599 -2.746846143604073
lowerback 13.158462312265904 1.1903294783435787 2.599174866439892
upperback 2.160599130570832 2.0275209787951165 1.302235650631166
thorax -5.023826546103591 1.0356642734107164 -0.4856008006426795
lowerneck -17.45924606274157 -3.596181258891117 -1.946928539827528
upperneck 18.77614293349635 -4.568279146444459 0.7251932309324092
head 8.756234559312137 -2.2374622693114663 -0.009977302534675658
rclavicle 3.5008121278879983E-15 8.295392258407762E-16
rhumerus -47.899392236927255 -18.014036140885445 -73.28208193329466
rradius 25.48176045937658
rwrist -2.421578458300079
rhand -22.347133200213207 28.560077813318408
rfingers 7.125020000000062
rthumb 4.074888217239316 -1.7551612427748253
lclavicle -3.627578055568961E-15 -6.287870645933473E-15
lhumerus -40.61073361061547 2.1336186875928718 84.930167811686
lradius 26.62102818459352
lwrist 3.347414817068403
lhand -32.647167213947114 21.142848511791865
lfingers 7.125020000000036
lthumb -5.790328350390805 52.00906926783047
rfemur -22.181786331659808 15.250926280553315 32.42427758913121
rtibia 31.838438239943493
rfoot -7.979919865629135 -12.705561945670238
rtoes -5.148031669121142
lfemur -4.8853080235777995 -6.734333800814783 -20.795966911609327
ltibia 18.188087422723008
lfoot -10.456351648446546 0.17617877368257595
ltoes -5.475037507040787
165
root 0 0 0 -6.793956572358226 -3.533276344474878 -2.285289048272854
lowerback 13.010208347136814 1.0396781144971723 2.1081335237850736
upperback 2.0946768709337764 1.7680873930227061 1.27695570691511
thorax -5.016670280283435 0.9118045650310911 -0.1927694589233777
lowerneck -17.477060333061466 -3.543111831219253 -1.981194713405613
upperneck 18.705832492441047 -4.470626073937377 0.6608560634074334
head 8.72716228394963 -2.198368530974283 -0.009598721252594311
rclavicle 3.50658854446536E-15 8.899790136240052E-16
rhumerus -48.05120063343764 -18.06651167581005 -73.31942641311863
rradius 25.363427689698238
rwrist -2.3884370826332457
rhand -22.291026789637755 28.519563665002167
rfingers 7.125020000000062
rthumb 4.126889787281762 -1.7891395852360183
lclavicle -3.4593938215166018E-15 -6.48081414723444E-15
lhumerus -40.313394951335454 1.8997039117138357 84.89245005758298
lradius 26.746958508437416
lwrist 3.631346396817831
lhand -32.62961906182152 21.301384054638355
lfingers 7.1250200000000365
lthumb -5.773178214045043 52.16403419411537
rfemur -23.02566351612157 16.78063245775334 33.706813765090814
rtibia 29.920560823227888
rfoot -8.823424411397246 -12.628065924569922
rtoes -5.267322363489221
lfemur -4.432504118339068 -6.702838230122117 -20.971373502189806
ltibia 18.373261069307123
lfoot -10.439749018146163 0.09332514082806398
ltoes -5.683494468162019
166
root 0 0 0 -6.400126565338013 -3.1303283490839906 -1.727829585470663
lowerback 12.83027967639767 0.8556964738972125 1.5078449972816432
upperback 2.005009424301864 1.4492278936119503 1.246534932329619
thorax -5.0210271553227415 0.7594693239374537 0.166131742026554
lowerneck -17.485044674348845 -3.476441504160495 -2.0192493408985164
upperneck 18.62127339866579 -4.348671110128444 0.5718152285718836
head 8.687569551049013 -2.1501093128213826 -0.01171982505643232
rclavicle 3.50265578631299E-15 9.195224161679916E-16
rhumerus -48.22567287307568 -18.1212190768962 -73.30297751583485
rradius 25.232705341861454
rwrist -2.3163298667383856
rhand -22.23861727642372 28.481601576574562
rfingers 7.125020000000061
rthumb 4.174961563582574 -1.821718850395463
lclavicle -3.259481467283751E-15 -6.733740664667172E-15
lhumerus -39.9554061445877 1.6112309499040123 84.8355831178483
lradius 26.91678998863754
lwrist 4.020028145224263
lhand -32.598005727804804 21.51911292104361
lfingers 7.125020000000037
lthumb -5.742846259889738 52.37511350833905
rfemur -23.91919835045978 18.615150859503373 35.06999251551436
rtibia 28.331481242974455
rfoot -9.330257194661648 -12.479500407187729
rtoes -5.318380228345045
lfemur -3.924114722988847 -6.664442163121825 -21.15320443222233
ltibia 18.607783502028404
lfoot -10.377861461766587 -0.022270614081062234
ltoes -5.931017461504476
167
root 0 0 0 -5.4865082142288415 -2.40792429712946 -0.5532186559756092
lowerback 12.455287968725774 0.4641035416776571 0.2229212793650719
upperback 1.7944145170302797 0.7658493444804645 1.1772458368447398
thorax -5.060718792996024 0.4329465135279018 0.9291841088394586
lowerneck -17.46472017410156 -3.3318072036680437 -2.0960785478724833
upperneck 18.44292365190941 -4.083851677978405 0.3585626240200632
head 8.592368477154404 -2.0472352083603154 -0.021225239801681006
rclavicle 3.4565252623480065E-15 9.064909712293769E-16
rhumerus -48.580438184079675 -18.199859149872175 -73.10884463008365
rradius 25.013858865568693
rwrist -2.1057412674100746
rhand -22.173231677284253 28.43220476989532
rfingers 7.1250200000000605
rthumb 4.233742123934377 -1.866772506181551
lclavicle -2.872868346198007E-15 -7.233861083728753E-15
lhumerus -39.329007830451516 1.064170021624033 84.67485234723759
lradius 27.266601024705565
lwrist 4.780627660304219
lhand -32.52167835265677 21.956043377305775
lfingers 7.125020000000038
lthumb -5.670471722987383 52.7949939333242
rfemur -25.177798203433085 21.25563460175711 36.85614780618128
rtibia 26.681385050463753
rfoot -9.532493512206404 -12.446843395179675
rtoes -5.172851136141755
lfemur -2.9517103583559248 -6.587522106699838 -21.503844323252892
ltibia 19.089521330008576
lfoot -10.252549122606638 -0.27553302012431047
ltoes -6.324214810106481
